<?xml version="1.0" encoding="UTF-8" standalone="no"?>
<!DOCTYPE svg PUBLIC "-//W3C//DTD SVG 1.1//EN" "http://www.w3.org/Graphics/SVG/1.1/DTD/svg11.dtd">
<svg version="1.1" xmlns="http://www.w3.org/2000/svg" xmlns:xlink="http://www.w3.org/1999/xlink" preserveAspectRatio="xMidYMid meet" viewBox="0 0 1921 1080" width="1921" height="1080"><defs><path d="" id="c4oBQ0NCFn"></path><path d="M137.61 193.39L262.39 193.39L262.39 317.25L137.61 317.25L137.61 193.39Z" id="cFxV6PyYu"></path><path d="M207.34 262.66L304.59 262.66L304.59 358.07L207.34 358.07L207.34 262.66Z" id="b198pQuour"></path><path d="M249.54 382.16L324.77 382.16L324.77 301.88L249.54 301.88L249.54 382.16Z" id="f1aBMpNEwZ"></path><path d="M446.67 940.09L576.97 940.09L576.97 1080L446.67 1080L446.67 940.09Z" id="aGI6yK7m6"></path><path d="M521.89 879.16L635.38 879.16L635.38 987.38L521.89 987.38L521.89 879.16Z" id="aWXlYtqz0"></path><path d="M587.04 845.08L674.14 845.08L674.14 929.53L587.04 929.53L587.04 845.08Z" id="b3vf7YLQG2"></path></defs><g><g><g><g><use xlink:href="#c4oBQ0NCFn" opacity="1" fill-opacity="0" stroke="#000000" stroke-width="1" stroke-opacity="1"></use></g></g><g><use xlink:href="#cFxV6PyYu" opacity="1" fill="#86faf9" fill-opacity="0"></use><g><use xlink:href="#cFxV6PyYu" opacity="1" fill-opacity="0" stroke="#2c4a52" stroke-width="5" stroke-opacity="0.26"></use></g></g><g><use xlink:href="#b198pQuour" opacity="1" fill="#86faf9" fill-opacity="0"></use><g><use xlink:href="#b198pQuour" opacity="1" fill-opacity="0" stroke="#2c4a52" stroke-width="5" stroke-opacity="0.27"></use></g></g><g><use xlink:href="#f1aBMpNEwZ" opacity="1" fill="#86faf9" fill-opacity="0"></use><g><use xlink:href="#f1aBMpNEwZ" opacity="1" fill-opacity="0" stroke="#2c4a52" stroke-width="5" stroke-opacity="0.28"></use></g></g><g><use xlink:href="#aGI6yK7m6" opacity="1" fill="#86faf7" fill-opacity="0"></use><g><use xlink:href="#aGI6yK7m6" opacity="1" fill-opacity="0" stroke="#2c4a52" stroke-width="5" stroke-opacity="0.24"></use></g></g><g><use xlink:href="#aWXlYtqz0" opacity="1" fill="#86faf7" fill-opacity="0"></use><g><use xlink:href="#aWXlYtqz0" opacity="1" fill-opacity="0" stroke="#2c4a52" stroke-width="5" stroke-opacity="0.29"></use></g></g><g><use xlink:href="#b3vf7YLQG2" opacity="1" fill="#86faf7" fill-opacity="0"></use><g><use xlink:href="#b3vf7YLQG2" opacity="1" fill-opacity="0" stroke="#2c4a52" stroke-width="5" stroke-opacity="0.28"></use></g></g></g></g></svg>