<svg id="Layer_5" enable-background="new 0 0 64 64" height="100%" viewBox="0 0 64 64" width="100%" xmlns="http://www.w3.org/2000/svg" xmlns:xlink="http://www.w3.org/1999/xlink"><linearGradient id="SVGID_1_" gradientUnits="userSpaceOnUse" x1="32" x2="32" y1="63" y2="1"><stop offset="0" stop-color="#9f2fff"/><stop offset="1" stop-color="#0bb1d3"/></linearGradient><path d="m58.464 17c-.508 0-.997.101-1.464.26v-13.26c0-1.654-1.346-3-3-3h-31.171c-.801 0-1.555.312-2.122.879l-8.828 8.828c-.567.566-.879 1.32-.879 2.122v2.222c-5.598.507-10 5.221-10 10.949v32c0 2.757 2.243 5 5 5h12c2.757 0 5-2.243 5-5v-1h24 1 14.181l-2.184-13.104c-.017-4.711-1.214-9.384-3.471-13.52l-.172-.316 5.318-5.318c.856-.856 1.328-1.995 1.328-3.206 0-2.501-2.035-4.536-4.536-4.536zm-37.464-12.586v5.586c0 .551-.449 1-1 1h-5.586zm-9 12.586c4.962 0 9 4.038 9 9s-4.038 9-9 9-9-4.038-9-9 4.038-9 9-9zm-5 18.786c1.502.77 3.199 1.214 5 1.214s3.498-.444 5-1.214v5.214h-10zm11 25.214h-12c-1.654 0-3-1.346-3-3v-25.695c.569.81 1.239 1.544 2 2.174v6.521c0 1.103.897 2 2 2h10c1.103 0 2-.897 2-2v-6.521c.761-.63 1.431-1.364 2-2.174v25.695c0 1.654-1.346 3-3 3zm5-6v-29c0-5.728-4.402-10.442-10-10.949v-2.051h7c1.654 0 3-1.346 3-3v-7h31c.551 0 1 .449 1 1v14.586l-6.414 6.414h-4.586c-1.771 0-3.36.776-4.46 2h-14.54v26h22v2zm21-26c-1.103 0-2 .897-2 2v1c0 .551-.449 1-1 1s-1-.449-1-1v-1c0-2.206 1.794-4 4-4h2.586l-2.054 2.054c-.176-.024-.35-.054-.532-.054zm3 22h-2v-5.12l2 1.6zm-8.816-18h-11.184v-4h11.35c-.222.627-.35 1.298-.35 2v1c0 .352.072.686.184 1zm3.952 8.45-3.136 3.136-3.586-3.586 6.047-6.047c.187-.029.366-.076.539-.138v5.3c0 .455.052.899.136 1.335zm-9.087 4.622 1.316-3.292 2.855 2.855-3.293 1.317c-.423.172-.927-.169-.927-.629 0-.087.016-.171.049-.251zm-6.049-11.072h11.586l-4 4h-7.586zm0 6h5.923l-1.6 4h-4.323zm0 6h4.098c.302 1.147 1.339 2 2.58 2 .343 0 .678-.064.994-.191l2.328-.932v3.123h-10zm12 .077.562-.225 3.33-3.33c.036.065.069.131.108.195v7.283h-4zm10 7.923v-7.236l9.195-2.508 1.624 9.744zm8.976-11.757-9.749 2.659-2.351-1.881c-1.192-.955-1.876-2.378-1.876-3.905v-8.116-1c1.103 0 2 .897 2 2v7h2v-1.586l6.874-6.874c1.923 3.6 2.984 7.624 3.102 11.703zm2.281-19.914-12.257 12.257v-2.586c0-1.252-.59-2.358-1.494-3.092l10.165-10.165c.479-.479 1.116-.743 1.793-.743 1.398 0 2.536 1.138 2.536 2.536 0 .677-.264 1.314-.743 1.793zm-51.257 4.817v-1.146h2v1.146c0 .471.383.854.854.854h.292c.471 0 .854-.383.854-.854 0-.326-.181-.619-.473-.765l-1.95-.974c-.973-.487-1.577-1.466-1.577-2.553 0-1.274.845-2.343 2-2.709v-2.145h2v2.145c1.155.366 2 1.435 2 2.709v1.146h-2v-1.146c0-.471-.383-.854-.854-.854h-.292c-.471 0-.854.383-.854.854 0 .326.181.619.473.765l1.95.974c.973.487 1.577 1.466 1.577 2.553 0 1.274-.845 2.343-2 2.709v2.145h-2v-2.145c-1.155-.366-2-1.435-2-2.709zm8 16.854h-10c-1.103 0-2 .897-2 2v10c0 1.103.897 2 2 2h10c1.103 0 2-.897 2-2v-10c0-1.103-.897-2-2-2zm0 4h-2v-2h2zm-4 8h-2v-2h2zm0-4h-2v-2h2zm-4 0h-2v-2h2zm2-4v-2h2v2zm-2-2v2h-2v-2zm-2 8h2v2h-2zm8 2v-6h2.001l.001 6zm38-52h-28v6h28zm-2 4h-24v-2h24zm2 6h-28v-2h28zm0 4h-28v-2h28zm-12 4h-16v-2h16z" fill="url(#SVGID_1_)"/></svg>