<svg id="Layer_3" enable-background="new 0 0 64 64" height="100%" viewBox="0 0 64 64" width="100%" xmlns="http://www.w3.org/2000/svg" xmlns:xlink="http://www.w3.org/1999/xlink"><linearGradient id="SVGID_1_" gradientUnits="userSpaceOnUse" x1="32" x2="32" y1="63" y2="1"><stop offset="0" stop-color="#9f2fff"/><stop offset="1" stop-color="#0bb1d3"/></linearGradient><path d="m58 15h-1v-14h-50v14h-1c-2.757 0-5 2.243-5 5v32c0 2.757 2.243 5 5 5h13.927c-.158 1.405-.631 2.753-1.423 3.941l-.039.059h-3.465v2h34v-2h-3.465l-.039-.059c-.792-1.188-1.264-2.537-1.423-3.941h13.927c2.757 0 5-2.243 5-5v-32c0-2.757-2.243-5-5-5zm0 2c1.654 0 3 1.346 3 3v29h-4v-32zm-3 32h-46v-38h46zm0-46v6h-46v-6zm-49 14h1v32h-4v-29c0-1.654 1.346-3 3-3zm37.221 44h-22.442c.645-1.247 1.042-2.6 1.17-4h20.102c.128 1.4.526 2.753 1.17 4zm14.779-6h-52c-1.654 0-3-1.346-3-3v-1h58v1c0 1.654-1.346 3-3 3zm-32-18c0-1.103-.897-2-2-2-2.206 0-4-1.794-4-4 0-1.859 1.279-3.411 3-3.858v-2.142h2v2.142c1.721.447 3 1.999 3 3.858h-2c0-1.103-.897-2-2-2s-2 .897-2 2 .897 2 2 2c2.206 0 4 1.794 4 4 0 1.859-1.279 3.411-3 3.858v2.142h-2v-2.142c-1.721-.447-3-1.999-3-3.858h2c0 1.103.897 2 2 2s2-.897 2-2zm23-18h-16v-2h16zm0 4h-16v-2h16zm-16 12h-2v-2h2zm-18 0v-2h2v2zm9 12c7.168 0 13-5.832 13-13 0-2.578-.764-4.977-2.063-7h4.063v1.586c0 1.331 1.083 2.414 2.414 2.414.636 0 1.258-.258 1.707-.707l3.293-3.293h3.586c1.654 0 3-1.346 3-3v-8c0-1.654-1.346-3-3-3h-18c-1.654 0-3 1.346-3 3v6.003c-1.54-.644-3.229-1.003-5-1.003-7.168 0-13 5.832-13 13s5.832 13 13 13zm7-24v-7c0-.552.448-1 1-1h18c.552 0 1 .448 1 1v8c0 .552-.448 1-1 1h-4.414l-3.879 3.879c-.238.238-.707.045-.707-.293v-3.586h-7.641c-.735-.764-1.562-1.433-2.463-2zm-7 0c6.065 0 11 4.935 11 11s-4.935 11-11 11-11-4.935-11-11 4.935-11 11-11zm-11-16h-2v-2h2zm4 0h-2v-2h2zm4 0h-2v-2h2z" fill="url(#SVGID_1_)"/></svg>