<svg id="Layer_35" enable-background="new 0 0 64 64" height="100%" viewBox="0 0 64 64" width="100%" xmlns="http://www.w3.org/2000/svg" xmlns:xlink="http://www.w3.org/1999/xlink"><linearGradient id="SVGID_1_" gradientUnits="userSpaceOnUse" x1="32" x2="32" y1="63" y2="1"><stop offset="0" stop-color="#9f2fff"/><stop offset="1" stop-color="#0bb1d3"/></linearGradient><path d="m47.725 5.328c-2.012-2.625-5.169-4.328-8.725-4.328s-6.713 1.703-8.725 4.328c-.861-.213-1.742-.328-2.635-.328h-12.64v1c0 1.627.793 3.061 2 3.974v.026c0 2.446 1.768 4.479 4.092 4.908.429 2.324 2.462 4.092 4.908 4.092h.217l-5.295 3.258c-.788.486-1.694.742-2.62.742h-.412c1.3-1.272 2.11-3.042 2.11-5 0-3.86-3.141-7-7-7s-7 3.14-7 7c0 2.237 1.058 4.226 2.696 5.509-4.456 1.406-7.696 5.577-7.696 10.491v7c0 2.206 1.794 4 4 4h1v14c0 2.206 1.794 4 4 4 1.201 0 2.266-.542 3-1.382.734.84 1.799 1.382 3 1.382 2.206 0 4-1.794 4-4v-24.735c0-1.703.854-3.273 2.283-4.199l12.357-7.995c1.387.605 2.848.929 4.36.929 3.495 0 6.607-1.644 8.624-4.192.658.123 1.325.192 1.996.192h2.38c2.446 0 4.479-1.768 4.908-4.092 2.324-.429 4.092-2.462 4.092-4.908v-.026c1.207-.913 2-2.347 2-3.974v-1h-12.64c-.893 0-1.774.115-2.635.328zm-24.541 9.672h2.816v-2h-4c-1.333 0-2.453-.88-2.842-2.085.275.047.554.085.842.085h4v-2h-4c-1.304 0-2.416-.836-2.829-2h10.469c.509 0 1.014.045 1.512.13-.731 1.47-1.152 3.12-1.152 4.87 0 1.734.414 3.425 1.194 4.96-.271.025-.543.04-.814.04h-2.38c-1.302 0-2.402-.839-2.816-2zm-15.184 3c0-2.757 2.243-5 5-5s5 2.243 5 5-2.243 5-5 5-5-2.243-5-5zm13.196 10.387c-2.001 1.296-3.196 3.493-3.196 5.878v24.735c0 1.103-.897 2-2 2s-2-.897-2-2v-18h-2v18c0 1.103-.897 2-2 2s-2-.897-2-2v-27h-2v11h-1c-1.103 0-2-.897-2-2v-7c0-4.962 4.037-9 9-9h1 5.302c1.297 0 2.565-.359 3.669-1.039l10.99-6.763c.211-.13.453-.198.701-.198.737 0 1.338.601 1.338 1.338v.39c0 .456-.229.875-.611 1.124zm17.804-7.387c-.89 0-1.758-.145-2.6-.403.373-.545.6-1.184.6-1.869v-.39c0-1.84-1.497-3.338-3.338-3.338-.618 0-1.224.171-1.75.495l-.92.566c-.64-1.258-.992-2.64-.992-4.061 0-4.962 4.037-9 9-9s9 4.038 9 9-4.037 9-9 9zm19-12h-4v2h4c.288 0 .567-.038.842-.085-.389 1.205-1.509 2.085-2.842 2.085h-4v2h2.816c-.414 1.161-1.514 2-2.816 2h-2.38c-.27 0-.537-.035-.806-.06.752-1.487 1.186-3.162 1.186-4.94 0-1.75-.421-3.4-1.152-4.87.498-.085 1.003-.13 1.512-.13h10.469c-.413 1.164-1.525 2-2.829 2zm-7 23v1c0 .552.448 1 1 1 1.654 0 3 1.346 3 3v3h-2v2h-2v-2.184c-1.161-.414-2-1.514-2-2.816h2c0 .552.448 1 1 1h1v-1c0-.552-.448-1-1-1-1.654 0-3-1.346-3-3v-3h2v-2h2v2.184c1.161.414 2 1.514 2 2.816h-2c0-.551-.448-1-1-1zm1-8c-6.065 0-11 4.935-11 11s4.935 11 11 11 11-4.935 11-11-4.935-11-11-11zm0 20c-4.963 0-9-4.037-9-9 0-4.962 4.037-9 9-9s9 4.038 9 9c0 4.963-4.037 9-9 9zm-13 11v-1c0-.552-.448-1-1-1-1.654 0-3-1.346-3-3v-3h2v-2h2v2.184c1.161.414 2 1.514 2 2.816h-2c0-.552-.448-1-1-1h-1v1c0 .552.448 1 1 1 1.654 0 3 1.346 3 3v3h-2v2h-2v-2.184c-1.161-.414-2-1.514-2-2.816h2c0 .552.448 1 1 1zm-1 8c6.065 0 11-4.935 11-11s-4.935-11-11-11-11 4.935-11 11 4.935 11 11 11zm0-20c4.963 0 9 4.037 9 9s-4.037 9-9 9-9-4.037-9-9 4.037-9 9-9zm0-34v1c0 .551.448 1 1 1 1.654 0 3 1.346 3 3v3h-2v2h-2v-2.184c-1.161-.414-2-1.514-2-2.816h2c0 .551.448 1 1 1h1v-1c0-.551-.448-1-1-1-1.654 0-3-1.346-3-3v-3h2v-2h2v2.184c1.161.414 2 1.514 2 2.816h-2c0-.551-.448-1-1-1z" fill="url(#SVGID_1_)"/></svg>